<svg width="55" height="54" viewBox="0 0 55 54" fill="none" xmlns="http://www.w3.org/2000/svg">
<path d="M32.25 42H22.75C22.3522 42 21.9706 41.842 21.6893 41.5607C21.408 41.2794 21.25 40.8978 21.25 40.5V34.75C21.25 34.3522 21.092 33.9706 20.8107 33.6893C20.5294 33.408 20.1478 33.25 19.75 33.25H14C13.6022 33.25 13.2206 33.092 12.9393 32.8107C12.658 32.5294 12.5 32.1478 12.5 31.75V22.25C12.5 21.8522 12.658 21.4706 12.9393 21.1893C13.2206 20.908 13.6022 20.75 14 20.75H19.75C20.1478 20.75 20.5294 20.592 20.8107 20.3107C21.092 20.0294 21.25 19.6478 21.25 19.25V13.5C21.25 13.1022 21.408 12.7206 21.6893 12.4393C21.9706 12.158 22.3522 12 22.75 12H32.25C32.6478 12 33.0294 12.158 33.3107 12.4393C33.592 12.7206 33.75 13.1022 33.75 13.5V19.25C33.75 19.6478 33.908 20.0294 34.1893 20.3107C34.4706 20.592 34.8522 20.75 35.25 20.75H41C41.3978 20.75 41.7794 20.908 42.0607 21.1893C42.342 21.4706 42.5 21.8522 42.5 22.25V31.75C42.5 32.1478 42.342 32.5294 42.0607 32.8107C41.7794 33.092 41.3978 33.25 41 33.25H35.25C34.8522 33.25 34.4706 33.408 34.1893 33.6893C33.908 33.9706 33.75 34.3522 33.75 34.75V40.5C33.75 40.8978 33.592 41.2794 33.3107 41.5607C33.0294 41.842 32.6478 42 32.25 42V42Z" stroke="#FC7941" stroke-width="4"/>
<path d="M27.5 52C41.3075 52 52.5 40.8075 52.5 27C52.5 13.1925 41.3075 2 27.5 2C13.6925 2 2.5 13.1925 2.5 27C2.5 40.8075 13.6925 52 27.5 52Z" stroke="#FC7941" stroke-width="4" stroke-linecap="round" stroke-linejoin="round"/>
</svg>
