<svg width="84" height="53" viewBox="0 0 84 53" fill="none" xmlns="http://www.w3.org/2000/svg">
<g clip-path="url(#clip0_1300_22480)">
<path d="M78.1798 49.2328C77.3932 49.2328 76.764 48.7132 76.764 48.0637C76.764 47.4142 77.3932 46.8946 78.1798 46.8946C79.7528 46.8946 81.0112 45.8554 81.0112 44.5564V4.67647C81.0112 3.37745 79.7528 2.33824 78.1798 2.33824H5.66292C4.08989 2.33824 2.83146 3.37745 2.83146 4.67647V44.5564C2.83146 45.8554 4.08989 46.8946 5.66292 46.8946C6.44944 46.8946 7.07865 47.4142 7.07865 48.0637C7.07865 48.7132 6.44944 49.2328 5.66292 49.2328C2.51685 49.2328 0 47.1544 0 44.5564V4.67647C0 2.07843 2.51685 0 5.66292 0H78.1798C81.3258 0 83.8427 2.07843 83.8427 4.67647V44.5564C84 47.1544 81.3258 49.2328 78.1798 49.2328Z" fill="#FC7941"/>
<path d="M70.9438 11.4314H1.41573C0.629213 11.4314 0 10.9118 0 10.2623C0 9.61275 0.629213 9.09314 1.41573 9.09314H70.9438C71.7303 9.09314 72.3596 9.61275 72.3596 10.2623C72.3596 10.9118 71.7303 11.4314 70.9438 11.4314Z" fill="#FC7941"/>
<path d="M8.96627 6.88474C9.74815 6.88474 10.382 6.36131 10.382 5.71563C10.382 5.06994 9.74815 4.54651 8.96627 4.54651C8.18438 4.54651 7.55054 5.06994 7.55054 5.71563C7.55054 6.36131 8.18438 6.88474 8.96627 6.88474Z" fill="#FC7941"/>
<path d="M14.7866 6.88474C15.5685 6.88474 16.2023 6.36131 16.2023 5.71563C16.2023 5.06994 15.5685 4.54651 14.7866 4.54651C14.0047 4.54651 13.3708 5.06994 13.3708 5.71563C13.3708 6.36131 14.0047 6.88474 14.7866 6.88474Z" fill="#FC7941"/>
<path d="M20.4494 6.88474C21.2313 6.88474 21.8652 6.36131 21.8652 5.71563C21.8652 5.06994 21.2313 4.54651 20.4494 4.54651C19.6675 4.54651 19.0337 5.06994 19.0337 5.71563C19.0337 6.36131 19.6675 6.88474 20.4494 6.88474Z" fill="#FC7941"/>
<path d="M58.3594 6.88474H33.6628C32.8763 6.88474 32.2471 6.36514 32.2471 5.71563C32.2471 5.06612 32.8763 4.54651 33.6628 4.54651H58.3594C59.1459 4.54651 59.7752 5.06612 59.7752 5.71563C59.7752 6.36514 59.1459 6.88474 58.3594 6.88474Z" fill="#FC7941"/>
<path d="M45.6179 32.4756L48.764 29.8775M48.764 29.8775L51.91 27.2795M48.764 29.8775L45.6179 27.2795M48.764 29.8775L51.91 32.4756M28.3145 25.9805C27.4801 25.9805 26.6799 26.2542 26.0899 26.7414C25.4999 27.2286 25.1685 27.8895 25.1685 28.5785V29.8775C25.1685 40.6386 35.733 49.3628 48.764 49.3628H50.337C51.1714 49.3628 51.9716 49.0891 52.5616 48.6019C53.1516 48.1146 53.4831 47.4538 53.4831 46.7648V42.504C53.4828 42.2315 53.3788 41.9659 53.1857 41.7449C52.9926 41.5239 52.7202 41.3586 52.4071 41.2725L45.3395 39.3266C44.9803 39.228 44.5901 39.2397 44.2405 39.3594C43.8909 39.4792 43.6053 39.6991 43.4361 39.9787L41.6586 42.9106C37.8067 41.4731 34.7217 38.9251 32.9817 35.7439L36.5321 34.2786C36.8707 34.1389 37.1369 33.9031 37.2819 33.6143C37.427 33.3256 37.4411 33.0034 37.3217 32.7068L34.9653 26.8677C34.8607 26.6092 34.6602 26.3844 34.3923 26.2251C34.1244 26.0659 33.8026 25.9803 33.4725 25.9805H28.3145Z" stroke="#FC7941" stroke-width="2" stroke-linecap="round" stroke-linejoin="round"/>
</g>
<defs>
<clipPath id="clip0_1300_22480">
<rect width="84" height="53" fill="white"/>
</clipPath>
</defs>
</svg>
