<svg width="53" height="64" viewBox="0 0 53 64" fill="none" xmlns="http://www.w3.org/2000/svg">
<path d="M38.0556 28.8889H35.1667V5.77778C35.1667 2.6 32.5667 0 29.3889 0H23.6111C20.4333 0 17.8333 2.6 17.8333 5.77778V28.8889H14.9444C6.97111 28.8889 0.5 35.36 0.5 43.3333V63.5556H52.5V43.3333C52.5 35.36 46.0289 28.8889 38.0556 28.8889ZM23.6111 5.77778H29.3889V28.8889H23.6111V5.77778ZM46.7222 57.7778H40.9444V49.1111C40.9444 47.5222 39.6444 46.2222 38.0556 46.2222C36.4667 46.2222 35.1667 47.5222 35.1667 49.1111V57.7778H29.3889V49.1111C29.3889 47.5222 28.0889 46.2222 26.5 46.2222C24.9111 46.2222 23.6111 47.5222 23.6111 49.1111V57.7778H17.8333V49.1111C17.8333 47.5222 16.5333 46.2222 14.9444 46.2222C13.3556 46.2222 12.0556 47.5222 12.0556 49.1111V57.7778H6.27778V43.3333C6.27778 38.5667 10.1778 34.6667 14.9444 34.6667H38.0556C42.8222 34.6667 46.7222 38.5667 46.7222 43.3333V57.7778Z" fill="#FC7941"/>
</svg>
