<svg width="79" height="55" viewBox="0 0 79 55" fill="none" xmlns="http://www.w3.org/2000/svg">
<path d="M73.5262 51.0907C72.7865 51.0907 72.1947 50.5515 72.1947 49.8775C72.1947 49.2034 72.7865 48.6642 73.5262 48.6642C75.0056 48.6642 76.1891 47.5858 76.1891 46.2377V4.85294C76.1891 3.5049 75.0056 2.42647 73.5262 2.42647H5.32584C3.84644 2.42647 2.66292 3.5049 2.66292 4.85294V46.2377C2.66292 47.5858 3.84644 48.6642 5.32584 48.6642C6.06554 48.6642 6.6573 49.2034 6.6573 49.8775C6.6573 50.5515 6.06554 51.0907 5.32584 51.0907C2.36704 51.0907 0 48.9338 0 46.2377V4.85294C0 2.15686 2.36704 0 5.32584 0H73.5262C76.485 0 78.8521 2.15686 78.8521 4.85294V46.2377C79 48.9338 76.485 51.0907 73.5262 51.0907Z" fill="#FC7941"/>
<path d="M37.1728 39.6104H16.9212C16.1302 39.6104 15.6555 39.1204 15.6555 38.6305V23.9311C15.6555 23.3187 16.2884 22.9512 16.9212 22.9512C17.7123 22.9512 18.187 23.4411 18.187 23.9311V37.528H35.7488V23.9311C35.7488 23.3187 36.3817 22.9512 37.0145 22.9512C37.8056 22.9512 38.2803 23.4411 38.2803 23.9311V38.508C38.4385 39.1204 37.8056 39.6104 37.1728 39.6104Z" fill="#FC7941"/>
<path d="M39.7043 22.2166C39.546 22.2166 39.3878 22.2166 39.2296 22.0941L27.0471 18.0518L14.8645 22.0941C14.2316 22.3391 13.4406 22.0941 13.1241 21.6041C12.8077 21.1141 13.1241 20.5017 13.757 20.2567L26.5724 16.0919C26.8888 15.9694 27.2053 15.9694 27.6799 16.0919L40.4953 20.2567C41.1282 20.5017 41.4446 21.1141 41.1282 21.6041C40.8118 21.9716 40.3371 22.2166 39.7043 22.2166Z" fill="#FC7941"/>
<path d="M62.9618 24.0537H49.1971C48.406 24.0537 47.9314 23.5637 47.9314 23.0737C47.9314 22.5837 48.5643 22.0938 49.1971 22.0938H62.9618C63.7529 22.0938 64.2275 22.5837 64.2275 23.0737C64.2275 23.5637 63.7529 24.0537 62.9618 24.0537Z" fill="#FC7941"/>
<path d="M62.9618 29.6884H49.1971C48.406 29.6884 47.9314 29.1984 47.9314 28.7085C47.9314 28.2185 48.5643 27.7285 49.1971 27.7285H62.9618C63.7529 27.7285 64.2275 28.2185 64.2275 28.7085C64.2275 29.1984 63.7529 29.6884 62.9618 29.6884Z" fill="#FC7941"/>
<path d="M62.9618 35.3232H49.1971C48.406 35.3232 47.9314 34.8332 47.9314 34.3432C47.9314 33.8533 48.5643 33.3633 49.1971 33.3633H62.9618C63.7529 33.3633 64.2275 33.8533 64.2275 34.3432C64.2275 34.8332 63.7529 35.3232 62.9618 35.3232Z" fill="#FC7941"/>
<path d="M41.8519 40.9599H12.2657C11.4746 40.9599 11 40.4699 11 39.98C11 39.49 11.6329 39 12.2657 39H41.8519C42.643 39 43.1176 39.49 43.1176 39.98C43.1176 40.4699 42.643 40.9599 41.8519 40.9599Z" fill="#FC7941"/>
<path d="M68.721 10.4265H3.33146C2.59176 10.4265 2 9.88725 2 9.21324C2 8.53922 2.59176 8 3.33146 8H68.721C69.4607 8 70.0524 8.53922 70.0524 9.21324C70.0524 9.88725 69.4607 10.4265 68.721 10.4265Z" fill="#FC7941"/>
<path d="M51.5581 6.42647H28.3315C27.5918 6.42647 27 5.88725 27 5.21324C27 4.53922 27.5918 4 28.3315 4H51.5581C52.2978 4 52.8895 4.53922 52.8895 5.21324C52.8895 5.88725 52.2978 6.42647 51.5581 6.42647Z" fill="#FC7941"/>
</svg>
