<svg width="79" height="55" viewBox="0 0 79 55" fill="none" xmlns="http://www.w3.org/2000/svg">
<path d="M73.5262 51.0907C72.7865 51.0907 72.1947 50.5515 72.1947 49.8775C72.1947 49.2034 72.7865 48.6642 73.5262 48.6642C75.0056 48.6642 76.1891 47.5858 76.1891 46.2377V4.85294C76.1891 3.5049 75.0056 2.42647 73.5262 2.42647H5.32584C3.84644 2.42647 2.66292 3.5049 2.66292 4.85294V46.2377C2.66292 47.5858 3.84644 48.6642 5.32584 48.6642C6.06554 48.6642 6.6573 49.2034 6.6573 49.8775C6.6573 50.5515 6.06554 51.0907 5.32584 51.0907C2.36704 51.0907 0 48.9338 0 46.2377V4.85294C0 2.15686 2.36704 0 5.32584 0H73.5262C76.485 0 78.8521 2.15686 78.8521 4.85294V46.2377C79 48.9338 76.485 51.0907 73.5262 51.0907Z" fill="#FC7941"/>
<path d="M66.721 11.8628H1.33146C0.59176 11.8628 0 11.3235 0 10.6495C0 9.9755 0.59176 9.43628 1.33146 9.43628H66.721C67.4607 9.43628 68.0524 9.9755 68.0524 10.6495C68.0524 11.3235 67.4607 11.8628 66.721 11.8628Z" fill="#FC7941"/>
<path d="M8.43253 7.14461C9.16788 7.14461 9.764 6.60143 9.764 5.93138C9.764 5.26132 9.16788 4.71814 8.43253 4.71814C7.69719 4.71814 7.10107 5.26132 7.10107 5.93138C7.10107 6.60143 7.69719 7.14461 8.43253 7.14461Z" fill="#FC7941"/>
<path d="M13.9064 7.14461C14.6418 7.14461 15.2379 6.60143 15.2379 5.93138C15.2379 5.26132 14.6418 4.71814 13.9064 4.71814C13.1711 4.71814 12.575 5.26132 12.575 5.93138C12.575 6.60143 13.1711 7.14461 13.9064 7.14461Z" fill="#FC7941"/>
<path d="M19.2321 7.14461C19.9674 7.14461 20.5636 6.60143 20.5636 5.93138C20.5636 5.26132 19.9674 4.71814 19.2321 4.71814C18.4967 4.71814 17.9006 5.26132 17.9006 5.93138C17.9006 6.60143 18.4967 7.14461 19.2321 7.14461Z" fill="#FC7941"/>
<path d="M54.8857 7.14461H31.6591C30.9194 7.14461 30.3276 6.60539 30.3276 5.93138C30.3276 5.25736 30.9194 4.71814 31.6591 4.71814H54.8857C55.6254 4.71814 56.2171 5.25736 56.2171 5.93138C56.2171 6.60539 55.6254 7.14461 54.8857 7.14461Z" fill="#FC7941"/>
<path fill-rule="evenodd" clip-rule="evenodd" d="M35.9373 21.6482C35.6614 21.5421 35.3501 21.5421 35.0742 21.6482L18.4309 28.0514C18.02 28.2095 17.7529 28.5764 17.7529 28.9828C17.7529 29.3892 18.02 29.7561 18.4309 29.9142L24.0404 32.0724V37.1998C23.3211 37.3697 22.6385 37.7085 22.0769 38.2202C21.2207 39.0004 20.7117 40.1213 20.7117 41.4942V47.5603C20.7117 47.8964 20.901 48.2167 21.2075 48.4026C21.2949 48.4554 21.3811 48.5007 21.533 48.5699C21.7159 48.6533 21.9724 48.7563 22.3025 48.8565C22.9643 49.0576 23.9148 49.2455 25.1499 49.2455C26.385 49.2455 27.3355 49.0577 27.9972 48.8567C28.3273 48.7565 28.5838 48.6535 28.7667 48.5702C28.9099 48.5049 28.9937 48.4602 29.0772 48.4119C29.3901 48.2263 29.5881 47.9017 29.5881 47.5606V41.4944C29.5881 40.1215 29.0792 39.0005 28.223 38.2203C27.6614 37.7086 26.9788 37.3698 26.2595 37.1998V32.9261L35.0742 36.3174C35.3501 36.4236 35.6614 36.4236 35.9373 36.3174L43.6425 33.353V38.7482C43.609 38.7826 43.5702 38.8208 43.526 38.8623C43.287 39.0862 42.8844 39.4083 42.2695 39.739C41.0472 40.3962 38.9341 41.1152 35.5058 41.1152C34.6003 41.1152 33.7872 41.065 33.0589 40.9793C32.4511 40.9078 31.8948 41.2988 31.8164 41.8526C31.738 42.4064 32.167 42.9133 32.7748 42.9847C33.6021 43.082 34.5102 43.1372 35.5058 43.1372C39.2895 43.1372 41.7995 42.3396 43.3974 41.4804C44.1925 41.0527 44.7492 40.6165 45.117 40.2718C45.3292 40.0729 45.5381 39.8592 45.6979 39.6217L45.6988 39.6203C45.8052 39.4616 45.8616 39.2791 45.8616 39.0931V32.4992L52.5806 29.9142C52.9915 29.7561 53.2585 29.3892 53.2585 28.9828C53.2585 28.5764 52.9915 28.2095 52.5806 28.0514L35.9373 21.6482ZM25.1498 39.0931C25.1498 39.0931 25.1499 39.0931 25.1498 39.0931C24.5922 39.0931 24.0485 39.2833 23.646 39.65C23.254 40.0072 22.9308 40.5923 22.9308 41.4942V46.9153C23.373 47.0572 24.1103 47.2234 25.1499 47.2234C26.1895 47.2234 26.9268 47.0573 27.369 46.9154V41.4944C27.369 40.5925 27.0458 40.0073 26.6538 39.6501C26.2514 39.2834 25.7075 39.0931 25.1498 39.0931ZM35.5057 34.2886L21.715 28.9828L35.5057 23.6771L49.2965 28.9828L35.5057 34.2886Z" fill="#FC7941"/>
</svg>
