<svg width="61" height="60" viewBox="0 0 61 60" fill="none" xmlns="http://www.w3.org/2000/svg">
<path d="M17.3188 34.5039L26.1992 24.937L6.7752 4.04534C5.26897 2.42268 2.66447 2.86215 1.72308 4.95808C-0.504876 9.99508 0.310994 16.1815 4.17069 20.3733L17.3188 34.5039ZM38.5941 28.3852C43.3952 30.7854 50.1418 29.0951 55.1312 23.72C61.1247 17.2632 62.2857 8.00056 57.6729 3.03118C53.0915 -1.9044 44.4935 -0.687409 38.4686 5.76941C33.4793 11.1445 31.9103 18.4126 34.1382 23.5848L5.70829 54.2125C5.12156 54.8445 4.79194 55.7018 4.79194 56.5957C4.79194 57.4896 5.12156 58.3469 5.70829 58.979C6.29502 59.6111 7.09079 59.9662 7.92055 59.9662C8.75031 59.9662 9.54609 59.6111 10.1328 58.979L29.5568 38.1211L48.9494 59.0128C49.2399 59.3258 49.5848 59.5741 49.9644 59.7434C50.344 59.9128 50.7508 60 51.1617 60C51.5725 60 51.9794 59.9128 52.3589 59.7434C52.7385 59.5741 53.0834 59.3258 53.3739 59.0128C53.6645 58.6998 53.8949 58.3283 54.0521 57.9194C54.2094 57.5104 54.2903 57.0722 54.2903 56.6295C54.2903 56.1869 54.2094 55.7486 54.0521 55.3397C53.8949 54.9308 53.6645 54.5592 53.3739 54.2463L33.9813 33.3546L38.5941 28.3852Z" fill="#FC7941"/>
</svg>
