<svg width="25" height="24" viewBox="0 0 25 24" fill="none" xmlns="http://www.w3.org/2000/svg">
<rect x="0.114746" width="24" height="24" rx="12" fill="#475569"/>
<path d="M10.1404 17.7172C6.55064 18.8586 6.55064 15.8149 5.11475 15.4344L10.1404 17.7172ZM15.166 20V17.0552C15.193 16.6923 15.1467 16.3276 15.0303 15.9852C14.914 15.6427 14.7302 15.3305 14.4912 15.0691C16.7455 14.8028 19.1147 13.8973 19.1147 9.74261C19.1146 8.68022 18.729 7.65856 18.0378 6.88911C18.3651 5.95963 18.342 4.93225 17.9732 4.02039C17.9732 4.02039 17.126 3.75406 15.166 5.14657C13.5205 4.67389 11.7859 4.67389 10.1404 5.14657C8.18039 3.75406 7.33321 4.02039 7.33321 4.02039C6.96445 4.93225 6.94131 5.95963 7.26859 6.88911C6.57227 7.66427 6.1863 8.69516 6.19167 9.76544C6.19167 13.8897 8.5609 14.7952 10.8153 15.092C10.5791 15.3507 10.3969 15.6592 10.2806 15.9974C10.1643 16.3357 10.1166 16.6961 10.1404 17.0552V20" fill="white"/>
<path d="M15.166 20V17.0552C15.193 16.6923 15.1467 16.3276 15.0303 15.9852C14.914 15.6427 14.7302 15.3305 14.4912 15.0691C16.7455 14.8028 19.1147 13.8973 19.1147 9.74261C19.1146 8.68022 18.729 7.65856 18.0378 6.88911C18.3651 5.95963 18.342 4.93225 17.9732 4.02039C17.9732 4.02039 17.126 3.75406 15.166 5.14657C13.5205 4.67389 11.7859 4.67389 10.1404 5.14657C8.18039 3.75406 7.33321 4.02039 7.33321 4.02039C6.96445 4.93225 6.94131 5.95963 7.26859 6.88911C6.57227 7.66427 6.1863 8.69516 6.19167 9.76544C6.19167 13.8897 8.5609 14.7952 10.8153 15.092C10.5791 15.3507 10.3969 15.6592 10.2806 15.9974C10.1643 16.3357 10.1166 16.6961 10.1404 17.0552V20M10.1404 17.7172C6.55064 18.8586 6.55064 15.8149 5.11475 15.4344L10.1404 17.7172Z" stroke="#475569" stroke-width="1.4" stroke-linecap="round" stroke-linejoin="round"/>
</svg>
