<svg width="185" height="53" viewBox="0 0 185 53" fill="none" xmlns="http://www.w3.org/2000/svg">
<g clip-path="url(#clip0_115_4616)">
<path d="M74.2894 26.3133C74.2894 14.0982 64.454 4.19617 52.321 4.19617C49.4188 4.19617 46.6536 4.76432 44.1141 5.7951C40.6153 2.21577 35.754 0 30.3768 0C20.0577 0 11.6251 8.18132 11.1333 18.4485C4.61135 21.1107 0 27.547 0 35.079C0 44.9729 7.97311 53 17.8004 53C20.0658 53 22.2264 52.5779 24.2176 51.7988C24.2176 51.7988 30.393 49.3639 36.4393 48.8606C42.1793 48.3818 51.3697 48.4305 52.2727 48.4305C52.2888 48.4305 52.2968 48.4305 52.313 48.4305C52.321 48.4305 52.321 48.4305 52.3291 48.4305C52.3452 48.4305 52.3533 48.4305 52.3533 48.4305C64.4702 48.4142 74.2894 38.5204 74.2894 26.3133Z" fill="#FC7941"/>
<path d="M48.2902 35.3469C42.5583 35.3469 37.8905 30.6475 37.8905 24.8767C37.8905 19.106 42.5583 14.4066 48.2902 14.4066C54.0221 14.4066 58.6899 19.106 58.6899 24.8767C58.6899 30.6475 54.0221 35.3469 48.2902 35.3469ZM48.2902 19.2764C45.2267 19.2764 42.7276 21.7925 42.7276 24.8767C42.7276 27.961 45.2267 30.477 48.2902 30.477C51.3537 30.477 53.8528 27.961 53.8528 24.8767C53.8528 21.7925 51.3537 19.2764 48.2902 19.2764Z" fill="white"/>
<path d="M62.0354 34.0888C63.2376 34.0888 64.2121 33.1077 64.2121 31.8974C64.2121 30.6871 63.2376 29.706 62.0354 29.706C60.8333 29.706 59.8588 30.6871 59.8588 31.8974C59.8588 33.1077 60.8333 34.0888 62.0354 34.0888Z" fill="white"/>
<path d="M36.2377 17.1094C36.2296 15.7702 35.1494 14.6907 33.8192 14.6907C33.8111 14.6907 33.8111 14.6907 33.803 14.6907C32.4648 14.6988 31.3926 15.7945 31.4006 17.1418C31.4006 17.1662 31.3926 19.2359 30.6751 22.0928C30.1914 24.0083 29.2965 26.5974 27.6761 29.1784C26.4507 28.4398 24.7819 27.263 23.4759 25.7533C21.1299 23.0424 20.5898 19.4225 20.5817 19.3901V19.3982H20.5656C20.3721 18.2457 19.3805 17.3691 18.1793 17.3691C16.841 17.3691 15.7607 18.4567 15.7607 19.804C15.7607 20.0313 15.793 20.2504 15.8494 20.4614C16.0832 21.7438 17.0103 25.7127 19.8239 28.9512C21.3476 30.7124 23.1776 32.076 24.6529 33.0175C19.6788 38.3905 16.188 39.4862 16.1235 39.5187C14.9062 40.0706 14.3661 41.5153 14.9143 42.7409C15.3173 43.6418 16.1961 44.1775 17.1232 44.1775C17.4537 44.1775 17.7923 44.1045 18.1148 43.9584C18.4614 43.8042 23.1212 42.2539 29.361 35.0385C36.2216 27.0925 36.2377 17.5152 36.2377 17.1094Z" fill="white"/>
<path d="M71.7418 3.53064C70.4761 3.10858 69.1056 3.79848 68.6864 5.07275L62.8496 26.2484C62.8093 26.3783 62.7852 26.5081 62.7852 26.6461C62.7852 27.3685 63.3656 27.9528 64.0831 27.9528C64.6233 27.9528 65.0908 27.6201 65.2843 27.1412H65.2924L73.2736 6.60675C73.7008 5.34059 73.0156 3.9608 71.7418 3.53064Z" fill="white"/>
</g>
<path d="M92.8749 35.8125C91.0083 35.8125 89.4589 35.5512 88.2269 35.0285C86.9949 34.4872 86.0616 33.7872 85.4269 32.9285C84.7923 32.0699 84.4563 31.1552 84.4189 30.1845C84.4189 30.0352 84.4749 29.9045 84.5869 29.7925C84.7176 29.6619 84.8669 29.5965 85.0349 29.5965H88.5629C88.8243 29.5965 89.0203 29.6432 89.1509 29.7365C89.3003 29.8299 89.4309 29.9512 89.5429 30.1005C89.6923 30.3805 89.8976 30.6512 90.1589 30.9125C90.4389 31.1739 90.7936 31.3885 91.2229 31.5565C91.6709 31.7059 92.2216 31.7805 92.8749 31.7805C93.9576 31.7805 94.7696 31.6125 95.3109 31.2765C95.8709 30.9405 96.1509 30.4832 96.1509 29.9045C96.1509 29.4939 96.0016 29.1579 95.7029 28.8965C95.4043 28.6165 94.9189 28.3739 94.2469 28.1685C93.5936 27.9445 92.7163 27.7205 91.6149 27.4965C90.1963 27.1979 88.9829 26.8152 87.9749 26.3485C86.9856 25.8632 86.2296 25.2379 85.7069 24.4725C85.1843 23.6885 84.9229 22.7179 84.9229 21.5605C84.9229 20.4219 85.2403 19.4045 85.8749 18.5085C86.5283 17.6125 87.4336 16.9125 88.5909 16.4085C89.7483 15.9045 91.1203 15.6525 92.7069 15.6525C93.9949 15.6525 95.1243 15.8205 96.0949 16.1565C97.0843 16.4925 97.9149 16.9405 98.5869 17.5005C99.2589 18.0605 99.7629 18.6579 100.099 19.2925C100.454 19.9085 100.64 20.5152 100.659 21.1125C100.659 21.2619 100.603 21.4019 100.491 21.5325C100.379 21.6445 100.239 21.7005 100.071 21.7005H96.3749C96.1696 21.7005 95.9923 21.6632 95.8429 21.5885C95.6936 21.5139 95.5629 21.3925 95.4509 21.2245C95.3389 20.8139 95.0403 20.4592 94.5549 20.1605C94.0883 19.8432 93.4723 19.6845 92.7069 19.6845C91.8856 19.6845 91.2416 19.8339 90.7749 20.1325C90.3269 20.4125 90.1029 20.8512 90.1029 21.4485C90.1029 21.8219 90.2243 22.1485 90.4669 22.4285C90.7283 22.7085 91.1483 22.9512 91.7269 23.1565C92.3243 23.3619 93.1363 23.5765 94.1629 23.8005C95.8616 24.1179 97.2336 24.5192 98.2789 25.0045C99.3243 25.4712 100.09 26.0872 100.575 26.8525C101.06 27.5992 101.303 28.5419 101.303 29.6805C101.303 30.9499 100.939 32.0512 100.211 32.9845C99.5016 33.8992 98.5123 34.5992 97.2429 35.0845C95.9736 35.5699 94.5176 35.8125 92.8749 35.8125ZM104.498 35.5325C104.293 35.5325 104.125 35.4672 103.994 35.3365C103.863 35.2059 103.798 35.0379 103.798 34.8325V16.3525C103.798 16.1472 103.863 15.9792 103.994 15.8485C104.125 15.7179 104.293 15.6525 104.498 15.6525H108.082C108.287 15.6525 108.455 15.7179 108.586 15.8485C108.717 15.9792 108.782 16.1472 108.782 16.3525V22.5965C109.286 22.0179 109.902 21.5605 110.63 21.2245C111.377 20.8699 112.235 20.6925 113.206 20.6925C114.289 20.6925 115.25 20.9352 116.09 21.4205C116.949 21.9059 117.621 22.6245 118.106 23.5765C118.591 24.5099 118.834 25.6579 118.834 27.0205V34.8325C118.834 35.0379 118.769 35.2059 118.638 35.3365C118.507 35.4672 118.339 35.5325 118.134 35.5325H114.522C114.335 35.5325 114.167 35.4672 114.018 35.3365C113.887 35.2059 113.822 35.0379 113.822 34.8325V27.1885C113.822 26.3112 113.607 25.6392 113.178 25.1725C112.767 24.6872 112.151 24.4445 111.33 24.4445C110.565 24.4445 109.949 24.6872 109.482 25.1725C109.015 25.6392 108.782 26.3112 108.782 27.1885V34.8325C108.782 35.0379 108.717 35.2059 108.586 35.3365C108.455 35.4672 108.287 35.5325 108.082 35.5325H104.498ZM128.897 35.8125C127.329 35.8125 126.004 35.5605 124.921 35.0565C123.857 34.5525 123.036 33.8339 122.457 32.9005C121.897 31.9485 121.58 30.8192 121.505 29.5125C121.486 29.1392 121.477 28.7192 121.477 28.2525C121.477 27.7672 121.486 27.3472 121.505 26.9925C121.58 25.6672 121.916 24.5379 122.513 23.6045C123.11 22.6712 123.941 21.9525 125.005 21.4485C126.088 20.9445 127.385 20.6925 128.897 20.6925C130.428 20.6925 131.725 20.9445 132.789 21.4485C133.872 21.9525 134.712 22.6712 135.309 23.6045C135.906 24.5379 136.242 25.6672 136.317 26.9925C136.336 27.3472 136.345 27.7672 136.345 28.2525C136.345 28.7192 136.336 29.1392 136.317 29.5125C136.242 30.8192 135.916 31.9485 135.337 32.9005C134.777 33.8339 133.956 34.5525 132.873 35.0565C131.809 35.5605 130.484 35.8125 128.897 35.8125ZM128.897 32.3965C129.737 32.3965 130.344 32.1445 130.717 31.6405C131.109 31.1365 131.333 30.3805 131.389 29.3725C131.408 29.0925 131.417 28.7192 131.417 28.2525C131.417 27.7859 131.408 27.4125 131.389 27.1325C131.333 26.1432 131.109 25.3965 130.717 24.8925C130.344 24.3699 129.737 24.1085 128.897 24.1085C128.076 24.1085 127.469 24.3699 127.077 24.8925C126.685 25.3965 126.47 26.1432 126.433 27.1325C126.414 27.4125 126.405 27.7859 126.405 28.2525C126.405 28.7192 126.414 29.0925 126.433 29.3725C126.47 30.3805 126.685 31.1365 127.077 31.6405C127.469 32.1445 128.076 32.3965 128.897 32.3965ZM139.799 40.8525C139.593 40.8525 139.425 40.7872 139.295 40.6565C139.164 40.5259 139.099 40.3579 139.099 40.1525V21.6725C139.099 21.4672 139.164 21.2992 139.295 21.1685C139.425 21.0379 139.593 20.9725 139.799 20.9725H142.963C143.149 20.9725 143.308 21.0379 143.439 21.1685C143.588 21.2992 143.663 21.4672 143.663 21.6725V22.7085C144.092 22.1299 144.661 21.6539 145.371 21.2805C146.08 20.8885 146.957 20.6925 148.003 20.6925C148.936 20.6925 149.757 20.8419 150.467 21.1405C151.176 21.4205 151.783 21.8405 152.287 22.4005C152.791 22.9605 153.183 23.6419 153.463 24.4445C153.761 25.2472 153.929 26.1712 153.967 27.2165C153.985 27.5899 153.995 27.9352 153.995 28.2525C153.995 28.5699 153.985 28.9152 153.967 29.2885C153.929 30.2965 153.771 31.2019 153.491 32.0045C153.211 32.8072 152.819 33.4885 152.315 34.0485C151.811 34.6085 151.195 35.0472 150.467 35.3645C149.757 35.6632 148.936 35.8125 148.003 35.8125C147.088 35.8125 146.285 35.6539 145.595 35.3365C144.923 35.0005 144.363 34.5339 143.915 33.9365V40.1525C143.915 40.3579 143.849 40.5259 143.719 40.6565C143.588 40.7872 143.42 40.8525 143.215 40.8525H139.799ZM146.491 32.0605C147.125 32.0605 147.62 31.9299 147.975 31.6685C148.329 31.4072 148.581 31.0525 148.731 30.6045C148.899 30.1565 149.001 29.6619 149.039 29.1205C149.076 28.5419 149.076 27.9632 149.039 27.3845C149.001 26.8432 148.899 26.3485 148.731 25.9005C148.581 25.4525 148.329 25.0979 147.975 24.8365C147.62 24.5752 147.125 24.4445 146.491 24.4445C145.875 24.4445 145.38 24.5845 145.007 24.8645C144.633 25.1259 144.363 25.4712 144.195 25.9005C144.027 26.3299 143.933 26.7965 143.915 27.3005C143.896 27.6552 143.887 28.0005 143.887 28.3365C143.887 28.6725 143.896 29.0272 143.915 29.4005C143.933 29.8672 144.036 30.3059 144.223 30.7165C144.409 31.1085 144.689 31.4352 145.063 31.6965C145.436 31.9392 145.912 32.0605 146.491 32.0605Z" fill="#202D3E"/>
<defs>
<clipPath id="clip0_115_4616">
<rect width="74.2894" height="53" fill="white"/>
</clipPath>
</defs>
</svg>
