<svg width="71" height="49" viewBox="0 0 71 49" fill="none" xmlns="http://www.w3.org/2000/svg">
<path d="M60 7C60 3.15 56.85 0 53 0H42.5V7H53V16.275L40.82 31.5H28.5V14H14.5C6.765 14 0.5 20.265 0.5 28V38.5H7.5C7.5 44.31 12.19 49 18 49C23.81 49 28.5 44.31 28.5 38.5H44.18L60 18.725V7ZM7.5 31.5V28C7.5 24.15 10.65 21 14.5 21H21.5V31.5H7.5ZM18 42C16.075 42 14.5 40.425 14.5 38.5H21.5C21.5 40.425 19.925 42 18 42Z" fill="#FC7941"/>
<path d="M28.4998 3.50012H10.9998V10.5001H28.4998V3.50012Z" fill="#FC7941"/>
<path d="M60 28C54.19 28 49.5 32.69 49.5 38.5C49.5 44.31 54.19 49 60 49C65.81 49 70.5 44.31 70.5 38.5C70.5 32.69 65.81 28 60 28ZM60 42C58.075 42 56.5 40.425 56.5 38.5C56.5 36.575 58.075 35 60 35C61.925 35 63.5 36.575 63.5 38.5C63.5 40.425 61.925 42 60 42Z" fill="#FC7941"/>
</svg>
