<svg width="84" height="53" viewBox="0 0 84 53" fill="none" xmlns="http://www.w3.org/2000/svg">
<path d="M78.1798 49.2328C77.3932 49.2328 76.764 48.7132 76.764 48.0637C76.764 47.4142 77.3932 46.8946 78.1798 46.8946C79.7528 46.8946 81.0112 45.8554 81.0112 44.5564V4.67647C81.0112 3.37745 79.7528 2.33824 78.1798 2.33824H5.66292C4.08989 2.33824 2.83146 3.37745 2.83146 4.67647V44.5564C2.83146 45.8554 4.08989 46.8946 5.66292 46.8946C6.44944 46.8946 7.07865 47.4142 7.07865 48.0637C7.07865 48.7132 6.44944 49.2328 5.66292 49.2328C2.51685 49.2328 0 47.1544 0 44.5564V4.67647C0 2.07843 2.51685 0 5.66292 0H78.1798C81.3258 0 83.8427 2.07843 83.8427 4.67647V44.5564C84 47.1544 81.3258 49.2328 78.1798 49.2328Z" fill="#FC7941"/>
<path d="M70.9438 11.4314H1.41573C0.629213 11.4314 0 10.9118 0 10.2623C0 9.61275 0.629213 9.09314 1.41573 9.09314H70.9438C71.7303 9.09314 72.3596 9.61275 72.3596 10.2623C72.3596 10.9118 71.7303 11.4314 70.9438 11.4314Z" fill="#FC7941"/>
<path d="M8.96627 6.88474C9.74815 6.88474 10.382 6.36131 10.382 5.71563C10.382 5.06994 9.74815 4.54651 8.96627 4.54651C8.18438 4.54651 7.55054 5.06994 7.55054 5.71563C7.55054 6.36131 8.18438 6.88474 8.96627 6.88474Z" fill="#FC7941"/>
<path d="M14.7866 6.88474C15.5685 6.88474 16.2023 6.36131 16.2023 5.71563C16.2023 5.06994 15.5685 4.54651 14.7866 4.54651C14.0047 4.54651 13.3708 5.06994 13.3708 5.71563C13.3708 6.36131 14.0047 6.88474 14.7866 6.88474Z" fill="#FC7941"/>
<path d="M20.4494 6.88474C21.2313 6.88474 21.8652 6.36131 21.8652 5.71563C21.8652 5.06994 21.2313 4.54651 20.4494 4.54651C19.6675 4.54651 19.0337 5.06994 19.0337 5.71563C19.0337 6.36131 19.6675 6.88474 20.4494 6.88474Z" fill="#FC7941"/>
<path d="M58.3594 6.88474H33.6628C32.8763 6.88474 32.2471 6.36514 32.2471 5.71563C32.2471 5.06612 32.8763 4.54651 33.6628 4.54651H58.3594C59.1459 4.54651 59.7752 5.06612 59.7752 5.71563C59.7752 6.36514 59.1459 6.88474 58.3594 6.88474Z" fill="#FC7941"/>
<path d="M38.125 31.5L41.0417 34.4167L46.875 28.5833M55.0679 22.7267C50.4568 22.9715 45.9369 21.3771 42.5 18.2933C39.0631 21.3771 34.5432 22.9715 29.9321 22.7267C29.561 24.1633 29.3738 25.6412 29.375 27.125C29.375 35.2785 34.9517 42.1313 42.5 44.0738C50.0483 42.1313 55.625 35.28 55.625 27.125C55.625 25.6054 55.431 24.1325 55.0679 22.7267Z" stroke="#FC7941" stroke-width="2" stroke-linecap="round" stroke-linejoin="round"/>
</svg>
