<svg width="60" height="57" viewBox="0 0 60 57" fill="none" xmlns="http://www.w3.org/2000/svg">
<path d="M15.7874 41.0472C17.524 41.0472 18.9449 42.4681 18.9449 44.2047C18.9449 47.6779 16.1031 50.5197 12.6299 50.5197C12.0931 50.5197 11.5879 50.4565 11.0512 50.3618C12.03 48.6252 12.6299 46.5413 12.6299 44.2047C12.6299 42.4681 14.0508 41.0472 15.7874 41.0472ZM52.6352 0C51.8142 0 51.0249 0.315748 50.3934 0.915669L22.1024 29.2067L30.7854 37.8898L59.0764 9.59874C60.3079 8.36732 60.3079 6.37811 59.0764 5.14669L54.8454 0.915669C54.2139 0.284173 53.4246 0 52.6352 0ZM15.7874 34.7323C10.546 34.7323 6.31496 38.9633 6.31496 44.2047C6.31496 48.341 2.65228 50.5197 0 50.5197C2.90488 54.3718 7.86212 56.8346 12.6299 56.8346C19.6079 56.8346 25.2598 51.1827 25.2598 44.2047C25.2598 38.9633 21.0288 34.7323 15.7874 34.7323Z" fill="#FC7941"/>
</svg>
