<svg width="25" height="20" viewBox="0 0 25 20" fill="none" xmlns="http://www.w3.org/2000/svg">
<path d="M23.1147 1.01006C22.1571 1.68553 21.0969 2.20217 19.9747 2.54006C19.3725 1.84757 18.5721 1.35675 17.6818 1.13398C16.7915 0.911216 15.8542 0.967251 14.9968 1.29451C14.1394 1.62177 13.4032 2.20446 12.8877 2.96377C12.3723 3.72309 12.1024 4.62239 12.1147 5.54006V6.54006C10.3574 6.58562 8.61602 6.19587 7.04575 5.4055C5.47549 4.61513 4.12506 3.44869 3.11475 2.01006C3.11475 2.01006 -0.885254 11.0101 8.11475 15.0101C6.05527 16.408 3.6019 17.109 1.11475 17.0101C10.1147 22.0101 21.1147 17.0101 21.1147 5.51006C21.1138 5.23151 21.087 4.95365 21.0347 4.68006C22.0553 3.67355 22.7756 2.40277 23.1147 1.01006Z" fill="#475569" stroke="#475569" stroke-width="2" stroke-linecap="round" stroke-linejoin="round"/>
</svg>
