<svg width="23" height="23" viewBox="0 0 23 23" fill="none" xmlns="http://www.w3.org/2000/svg">
<path d="M11.5433 0C5.23132 0 0.114746 5.11657 0.114746 11.4286C0.114746 17.7406 5.23132 22.8571 11.5433 22.8571C17.8553 22.8571 22.9719 17.7406 22.9719 11.4286C22.9719 5.11657 17.8553 0 11.5433 0ZM11.5433 1.656C14.033 1.656 16.3056 2.58743 18.0313 4.12C16.7633 5.79257 14.837 6.90629 12.9067 7.66C11.814 5.66991 10.5894 3.75516 9.24103 1.92857C9.99514 1.7468 10.7682 1.6553 11.5439 1.656H11.5433ZM7.3856 2.58171C8.65989 4.488 9.89417 6.25543 11.0216 8.256C8.17017 8.99486 4.94789 9.43829 1.97132 9.44571C2.59875 6.40114 4.64389 3.87314 7.3856 2.58229V2.58171ZM19.1153 5.25029C20.5275 6.97597 21.3043 9.1342 21.3159 11.364C19.0553 10.9183 16.8073 10.8017 14.5182 11.0326C14.261 10.3909 13.949 9.78114 13.6502 9.124C15.6233 8.328 17.733 6.96571 19.1153 5.24971V5.25029ZM11.8153 9.768C12.0599 10.288 12.3433 10.84 12.6096 11.404C9.42675 12.8074 6.04103 14.6829 4.28389 17.9709C2.59704 16.1042 1.69806 13.6571 1.77532 11.1423C5.18389 11.1263 8.5296 10.7 11.8153 9.768ZM16.9799 12.4326C18.4021 12.4329 19.8183 12.6153 21.1942 12.9754C20.982 14.299 20.4999 15.5648 19.7776 16.694C19.0553 17.8232 18.1085 18.7918 16.9959 19.5394C16.4713 17.1537 15.9713 14.8709 15.0873 12.5691C15.7138 12.4778 16.3462 12.432 16.9793 12.432L16.9799 12.4326ZM21.245 12.6097C21.2382 12.6657 21.2319 12.7206 21.2239 12.7754C21.2319 12.72 21.2387 12.6651 21.245 12.6097ZM13.2793 13.0154C14.1799 15.3429 14.8867 17.92 15.361 20.428C14.1537 20.9403 12.8554 21.2034 11.5439 21.2017C9.37123 21.2048 7.26004 20.4806 5.54675 19.1446C7.31646 16.2737 10.0576 14.1011 13.2787 13.016L13.2793 13.0154Z" fill="#475569"/>
</svg>
