<svg width="185" height="64" viewBox="0 0 185 64" fill="none" xmlns="http://www.w3.org/2000/svg">
<path d="M92.8749 38.154C91.0083 38.154 89.4589 37.8927 88.2269 37.37C86.9949 36.8287 86.0616 36.1287 85.4269 35.27C84.7923 34.4114 84.4563 33.4967 84.4189 32.526C84.4189 32.3767 84.4749 32.246 84.5869 32.134C84.7176 32.0034 84.8669 31.938 85.0349 31.938H88.5629C88.8243 31.938 89.0203 31.9847 89.1509 32.078C89.3003 32.1714 89.4309 32.2927 89.5429 32.442C89.6923 32.722 89.8976 32.9927 90.1589 33.254C90.4389 33.5154 90.7936 33.73 91.2229 33.898C91.6709 34.0474 92.2216 34.122 92.8749 34.122C93.9576 34.122 94.7696 33.954 95.3109 33.618C95.8709 33.282 96.1509 32.8247 96.1509 32.246C96.1509 31.8354 96.0016 31.4994 95.7029 31.238C95.4043 30.958 94.9189 30.7154 94.2469 30.51C93.5936 30.286 92.7163 30.062 91.6149 29.838C90.1963 29.5394 88.9829 29.1567 87.9749 28.69C86.9856 28.2047 86.2296 27.5794 85.7069 26.814C85.1843 26.03 84.9229 25.0594 84.9229 23.902C84.9229 22.7634 85.2403 21.746 85.8749 20.85C86.5283 19.954 87.4336 19.254 88.5909 18.75C89.7483 18.246 91.1203 17.994 92.7069 17.994C93.9949 17.994 95.1243 18.162 96.0949 18.498C97.0843 18.834 97.9149 19.282 98.5869 19.842C99.2589 20.402 99.7629 20.9994 100.099 21.634C100.454 22.25 100.64 22.8567 100.659 23.454C100.659 23.6034 100.603 23.7434 100.491 23.874C100.379 23.986 100.239 24.042 100.071 24.042H96.3749C96.1696 24.042 95.9923 24.0047 95.8429 23.93C95.6936 23.8554 95.5629 23.734 95.4509 23.566C95.3389 23.1554 95.0403 22.8007 94.5549 22.502C94.0883 22.1847 93.4723 22.026 92.7069 22.026C91.8856 22.026 91.2416 22.1754 90.7749 22.474C90.3269 22.754 90.1029 23.1927 90.1029 23.79C90.1029 24.1634 90.2243 24.49 90.4669 24.77C90.7283 25.05 91.1483 25.2927 91.7269 25.498C92.3243 25.7034 93.1363 25.918 94.1629 26.142C95.8616 26.4594 97.2336 26.8607 98.2789 27.346C99.3243 27.8127 100.09 28.4287 100.575 29.194C101.06 29.9407 101.303 30.8834 101.303 32.022C101.303 33.2914 100.939 34.3927 100.211 35.326C99.5016 36.2407 98.5123 36.9407 97.2429 37.426C95.9736 37.9114 94.5176 38.154 92.8749 38.154ZM104.498 37.874C104.293 37.874 104.125 37.8087 103.994 37.678C103.863 37.5474 103.798 37.3794 103.798 37.174V18.694C103.798 18.4887 103.863 18.3207 103.994 18.19C104.125 18.0594 104.293 17.994 104.498 17.994H108.082C108.287 17.994 108.455 18.0594 108.586 18.19C108.717 18.3207 108.782 18.4887 108.782 18.694V24.938C109.286 24.3594 109.902 23.902 110.63 23.566C111.377 23.2114 112.235 23.034 113.206 23.034C114.289 23.034 115.25 23.2767 116.09 23.762C116.949 24.2474 117.621 24.966 118.106 25.918C118.591 26.8514 118.834 27.9994 118.834 29.362V37.174C118.834 37.3794 118.769 37.5474 118.638 37.678C118.507 37.8087 118.339 37.874 118.134 37.874H114.522C114.335 37.874 114.167 37.8087 114.018 37.678C113.887 37.5474 113.822 37.3794 113.822 37.174V29.53C113.822 28.6527 113.607 27.9807 113.178 27.514C112.767 27.0287 112.151 26.786 111.33 26.786C110.565 26.786 109.949 27.0287 109.482 27.514C109.015 27.9807 108.782 28.6527 108.782 29.53V37.174C108.782 37.3794 108.717 37.5474 108.586 37.678C108.455 37.8087 108.287 37.874 108.082 37.874H104.498ZM128.897 38.154C127.329 38.154 126.004 37.902 124.921 37.398C123.857 36.894 123.036 36.1754 122.457 35.242C121.897 34.29 121.58 33.1607 121.505 31.854C121.486 31.4807 121.477 31.0607 121.477 30.594C121.477 30.1087 121.486 29.6887 121.505 29.334C121.58 28.0087 121.916 26.8794 122.513 25.946C123.11 25.0127 123.941 24.294 125.005 23.79C126.088 23.286 127.385 23.034 128.897 23.034C130.428 23.034 131.725 23.286 132.789 23.79C133.872 24.294 134.712 25.0127 135.309 25.946C135.906 26.8794 136.242 28.0087 136.317 29.334C136.336 29.6887 136.345 30.1087 136.345 30.594C136.345 31.0607 136.336 31.4807 136.317 31.854C136.242 33.1607 135.916 34.29 135.337 35.242C134.777 36.1754 133.956 36.894 132.873 37.398C131.809 37.902 130.484 38.154 128.897 38.154ZM128.897 34.738C129.737 34.738 130.344 34.486 130.717 33.982C131.109 33.478 131.333 32.722 131.389 31.714C131.408 31.434 131.417 31.0607 131.417 30.594C131.417 30.1274 131.408 29.754 131.389 29.474C131.333 28.4847 131.109 27.738 130.717 27.234C130.344 26.7114 129.737 26.45 128.897 26.45C128.076 26.45 127.469 26.7114 127.077 27.234C126.685 27.738 126.47 28.4847 126.433 29.474C126.414 29.754 126.405 30.1274 126.405 30.594C126.405 31.0607 126.414 31.434 126.433 31.714C126.47 32.722 126.685 33.478 127.077 33.982C127.469 34.486 128.076 34.738 128.897 34.738ZM139.799 43.194C139.593 43.194 139.425 43.1287 139.295 42.998C139.164 42.8674 139.099 42.6994 139.099 42.494V24.014C139.099 23.8087 139.164 23.6407 139.295 23.51C139.425 23.3794 139.593 23.314 139.799 23.314H142.963C143.149 23.314 143.308 23.3794 143.439 23.51C143.588 23.6407 143.663 23.8087 143.663 24.014V25.05C144.092 24.4714 144.661 23.9954 145.371 23.622C146.08 23.23 146.957 23.034 148.003 23.034C148.936 23.034 149.757 23.1834 150.467 23.482C151.176 23.762 151.783 24.182 152.287 24.742C152.791 25.302 153.183 25.9834 153.463 26.786C153.761 27.5887 153.929 28.5127 153.967 29.558C153.985 29.9314 153.995 30.2767 153.995 30.594C153.995 30.9114 153.985 31.2567 153.967 31.63C153.929 32.638 153.771 33.5434 153.491 34.346C153.211 35.1487 152.819 35.83 152.315 36.39C151.811 36.95 151.195 37.3887 150.467 37.706C149.757 38.0047 148.936 38.154 148.003 38.154C147.088 38.154 146.285 37.9954 145.595 37.678C144.923 37.342 144.363 36.8754 143.915 36.278V42.494C143.915 42.6994 143.849 42.8674 143.719 42.998C143.588 43.1287 143.42 43.194 143.215 43.194H139.799ZM146.491 34.402C147.125 34.402 147.62 34.2714 147.975 34.01C148.329 33.7487 148.581 33.394 148.731 32.946C148.899 32.498 149.001 32.0034 149.039 31.462C149.076 30.8834 149.076 30.3047 149.039 29.726C149.001 29.1847 148.899 28.69 148.731 28.242C148.581 27.794 148.329 27.4394 147.975 27.178C147.62 26.9167 147.125 26.786 146.491 26.786C145.875 26.786 145.38 26.926 145.007 27.206C144.633 27.4674 144.363 27.8127 144.195 28.242C144.027 28.6714 143.933 29.138 143.915 29.642C143.896 29.9967 143.887 30.342 143.887 30.678C143.887 31.014 143.896 31.3687 143.915 31.742C143.933 32.2087 144.036 32.6474 144.223 33.058C144.409 33.45 144.689 33.7767 145.063 34.038C145.436 34.2807 145.912 34.402 146.491 34.402Z" fill="#202D3E"/>
<g clip-path="url(#clip0_1223_22311)">
<path d="M80.6905 29.2957C80.6905 15.9282 70.0077 5.09204 56.8293 5.09204C53.6769 5.09204 50.6735 5.71378 47.9152 6.84181C44.1149 2.92481 38.8348 0.5 32.9942 0.5C21.786 0.5 12.6268 9.45314 12.0926 20.689C5.00868 23.6023 0 30.6458 0 38.8884C0 49.7156 8.66011 58.5 19.3342 58.5C21.7948 58.5 24.1415 58.0381 26.3043 57.1855C26.3043 57.1855 33.0118 54.5208 39.5791 53.9701C45.8137 53.4461 55.796 53.4994 56.7767 53.4994C56.7942 53.4994 56.803 53.4994 56.8205 53.4994C56.8293 53.4994 56.8292 53.4994 56.838 53.4994C56.8555 53.4994 56.8643 53.4994 56.8643 53.4994C70.0252 53.4816 80.6905 42.6544 80.6905 29.2957Z" fill="#F97316"/>
<path d="M52.4511 39.1814C46.2252 39.1814 41.1553 34.0387 41.1553 27.7235C41.1553 21.4084 46.2252 16.2656 52.4511 16.2656C58.6769 16.2656 63.7468 21.4084 63.7468 27.7235C63.7468 34.0387 58.6769 39.1814 52.4511 39.1814ZM52.4511 21.5949C49.1236 21.5949 46.4091 24.3483 46.4091 27.7235C46.4091 31.0987 49.1236 33.8522 52.4511 33.8522C55.7785 33.8522 58.493 31.0987 58.493 27.7235C58.493 24.3483 55.7785 21.5949 52.4511 21.5949Z" fill="white"/>
<path d="M67.3808 37.8046C68.6866 37.8046 69.7451 36.7309 69.7451 35.4065C69.7451 34.082 68.6866 33.0083 67.3808 33.0083C66.0751 33.0083 65.0166 34.082 65.0166 35.4065C65.0166 36.7309 66.0751 37.8046 67.3808 37.8046Z" fill="white"/>
<path d="M39.3602 19.2235C39.3515 17.758 38.1781 16.5767 36.7333 16.5767C36.7245 16.5767 36.7245 16.5767 36.7158 16.5767C35.2622 16.5855 34.0976 17.7846 34.1063 19.259C34.1063 19.2857 34.0976 21.5506 33.3183 24.6771C32.7929 26.7733 31.8209 29.6067 30.0609 32.4312C28.7299 31.6229 26.9173 30.335 25.4988 28.6829C22.9507 25.7163 22.364 21.7549 22.3552 21.7194V21.7283H22.3377C22.1275 20.467 21.0505 19.5077 19.7458 19.5077C18.2922 19.5077 17.1189 20.6979 17.1189 22.1724C17.1189 22.4211 17.1539 22.6609 17.2152 22.8918C17.4691 24.2952 18.4761 28.6385 21.5321 32.1825C23.1871 34.1099 25.1748 35.6021 26.7772 36.6324C21.3745 42.5123 17.583 43.7114 17.5129 43.747C16.1907 44.3509 15.604 45.9319 16.1994 47.2731C16.6373 48.2591 17.5917 48.8453 18.5987 48.8453C18.9577 48.8453 19.3255 48.7653 19.6757 48.6055C20.0523 48.4367 25.1135 46.7402 31.891 38.844C39.3427 30.1485 39.3602 19.6676 39.3602 19.2235Z" fill="white"/>
<path d="M77.9235 4.36375C76.5487 3.90188 75.0601 4.65686 74.6048 6.05134L68.2651 29.2247C68.2213 29.3668 68.1951 29.5089 68.1951 29.6599C68.1951 30.4504 68.8255 31.0899 69.6049 31.0899C70.1915 31.0899 70.6994 30.7258 70.9096 30.2017H70.9183L79.5872 7.73006C80.0513 6.34445 79.307 4.8345 77.9235 4.36375Z" fill="white"/>
</g>
<defs>
<clipPath id="clip0_1223_22311">
<rect width="80.6905" height="58" fill="white" transform="translate(0 0.5)"/>
</clipPath>
</defs>
</svg>
